<?xml version="1.0" encoding="UTF-8"?>
<!DOCTYPE svg PUBLIC "-//W3C//DTD SVG 1.1//EN" "http://www.w3.org/Graphics/SVG/1.1/DTD/svg11.dtd">
<svg version="1.2" width="176.65mm" height="176.65mm" viewBox="0 0 17665 17665" preserveAspectRatio="xMidYMid" fill-rule="evenodd" stroke-width="28.222" stroke-linejoin="round" xmlns="http://www.w3.org/2000/svg" xmlns:ooo="http://xml.openoffice.org/svg/export" xmlns:xlink="http://www.w3.org/1999/xlink" xmlns:presentation="http://sun.com/xmlns/staroffice/presentation" xmlns:smil="http://www.w3.org/2001/SMIL20/" xmlns:anim="urn:oasis:names:tc:opendocument:xmlns:animation:1.0" xml:space="preserve">
 <defs class="ClipPathGroup">
  <clipPath id="presentation_clip_path" clipPathUnits="userSpaceOnUse">
   <rect x="0" y="0" width="17665" height="17665"/>
  </clipPath>
  <clipPath id="presentation_clip_path_shrink" clipPathUnits="userSpaceOnUse">
   <rect x="17" y="17" width="17630" height="17630"/>
  </clipPath>
 </defs>
 <defs class="TextShapeIndex">
  <g ooo:slide="id1" ooo:id-list="id3 id4 id5 id6 id7 id8 id9 id10"/>
 </defs>
 <defs class="EmbeddedBulletChars">
  <g id="bullet-char-template-57356" transform="scale(0.00048828125,-0.00048828125)">
   <path d="M 580,1141 L 1163,571 580,0 -4,571 580,1141 Z"/>
  </g>
  <g id="bullet-char-template-57354" transform="scale(0.00048828125,-0.00048828125)">
   <path d="M 8,1128 L 1137,1128 1137,0 8,0 8,1128 Z"/>
  </g>
  <g id="bullet-char-template-10146" transform="scale(0.00048828125,-0.00048828125)">
   <path d="M 174,0 L 602,739 174,1481 1456,739 174,0 Z M 1358,739 L 309,1346 659,739 1358,739 Z"/>
  </g>
  <g id="bullet-char-template-10132" transform="scale(0.00048828125,-0.00048828125)">
   <path d="M 2015,739 L 1276,0 717,0 1260,543 174,543 174,936 1260,936 717,1481 1274,1481 2015,739 Z"/>
  </g>
  <g id="bullet-char-template-10007" transform="scale(0.00048828125,-0.00048828125)">
   <path d="M 0,-2 C -7,14 -16,27 -25,37 L 356,567 C 262,823 215,952 215,954 215,979 228,992 255,992 264,992 276,990 289,987 310,991 331,999 354,1012 L 381,999 492,748 772,1049 836,1024 860,1049 C 881,1039 901,1025 922,1006 886,937 835,863 770,784 769,783 710,716 594,584 L 774,223 C 774,196 753,168 711,139 L 727,119 C 717,90 699,76 672,76 641,76 570,178 457,381 L 164,-76 C 142,-110 111,-127 72,-127 30,-127 9,-110 8,-76 1,-67 -2,-52 -2,-32 -2,-23 -1,-13 0,-2 Z"/>
  </g>
  <g id="bullet-char-template-10004" transform="scale(0.00048828125,-0.00048828125)">
   <path d="M 285,-33 C 182,-33 111,30 74,156 52,228 41,333 41,471 41,549 55,616 82,672 116,743 169,778 240,778 293,778 328,747 346,684 L 369,508 C 377,444 397,411 428,410 L 1163,1116 C 1174,1127 1196,1133 1229,1133 1271,1133 1292,1118 1292,1087 L 1292,965 C 1292,929 1282,901 1262,881 L 442,47 C 390,-6 338,-33 285,-33 Z"/>
  </g>
  <g id="bullet-char-template-9679" transform="scale(0.00048828125,-0.00048828125)">
   <path d="M 813,0 C 632,0 489,54 383,161 276,268 223,411 223,592 223,773 276,916 383,1023 489,1130 632,1184 813,1184 992,1184 1136,1130 1245,1023 1353,916 1407,772 1407,592 1407,412 1353,268 1245,161 1136,54 992,0 813,0 Z"/>
  </g>
  <g id="bullet-char-template-8226" transform="scale(0.00048828125,-0.00048828125)">
   <path d="M 346,457 C 273,457 209,483 155,535 101,586 74,649 74,723 74,796 101,859 155,911 209,963 273,989 346,989 419,989 480,963 531,910 582,859 608,796 608,723 608,648 583,586 532,535 482,483 420,457 346,457 Z"/>
  </g>
  <g id="bullet-char-template-8211" transform="scale(0.00048828125,-0.00048828125)">
   <path d="M -4,459 L 1135,459 1135,606 -4,606 -4,459 Z"/>
  </g>
  <g id="bullet-char-template-61548" transform="scale(0.00048828125,-0.00048828125)">
   <path d="M 173,740 C 173,903 231,1043 346,1159 462,1274 601,1332 765,1332 928,1332 1067,1274 1183,1159 1299,1043 1357,903 1357,740 1357,577 1299,437 1183,322 1067,206 928,148 765,148 601,148 462,206 346,322 231,437 173,577 173,740 Z"/>
  </g>
 </defs>
 <defs class="TextEmbeddedBitmaps"/>
 <g>
  <g id="id2" class="Master_Slide">
   <g id="bg-id2" class="Background"/>
   <g id="bo-id2" class="BackgroundObjects"/>
  </g>
 </g>
 <g class="SlideGroup">
  <g>
   <g id="container-id1">
    <g id="id1" class="Slide" clip-path="url(#presentation_clip_path)">
     <g class="Page">
      <g class="com.sun.star.drawing.CustomShape">
       <g id="id3">
        <rect class="BoundingBox" stroke="none" fill="none" x="9218" y="10918" width="1203" height="1103"/>
        <path fill="rgb(174,207,0)" stroke="none" d="M 9819,10919 C 10159,10919 10419,11157 10419,11469 10419,11781 10159,12019 9819,12019 9479,12019 9219,11781 9219,11469 9219,11157 9479,10919 9819,10919 Z"/>
        <path fill="none" stroke="rgb(174,207,0)" d="M 9819,10919 C 10159,10919 10419,11157 10419,11469 10419,11781 10159,12019 9819,12019 9479,12019 9219,11781 9219,11469 9219,11157 9479,10919 9819,10919 Z"/>
       </g>
      </g>
      <g class="com.sun.star.drawing.CustomShape">
       <g id="id4">
        <rect class="BoundingBox" stroke="none" fill="none" x="7118" y="6918" width="1203" height="1103"/>
        <path fill="rgb(174,207,0)" stroke="none" d="M 7719,6919 C 8059,6919 8319,7157 8319,7469 8319,7781 8059,8019 7719,8019 7379,8019 7119,7781 7119,7469 7119,7157 7379,6919 7719,6919 Z"/>
        <path fill="none" stroke="rgb(174,207,0)" d="M 7719,6919 C 8059,6919 8319,7157 8319,7469 8319,7781 8059,8019 7719,8019 7379,8019 7119,7781 7119,7469 7119,7157 7379,6919 7719,6919 Z"/>
       </g>
      </g>
      <g class="com.sun.star.drawing.LineShape">
       <g id="id5">
        <rect class="BoundingBox" stroke="none" fill="none" x="6219" y="7818" width="1102" height="1902"/>
        <path fill="none" stroke="rgb(122,81,5)" d="M 7319,7819 L 6434,9347"/>
        <path fill="rgb(122,81,5)" stroke="none" d="M 6219,9719 L 6574,9405 6315,9254 6219,9719 Z"/>
       </g>
      </g>
      <g class="com.sun.star.drawing.LineShape">
       <g id="id6">
        <rect class="BoundingBox" stroke="none" fill="none" x="8318" y="7518" width="2302" height="1102"/>
        <path fill="none" stroke="rgb(122,81,5)" d="M 8319,7519 L 10231,8433"/>
        <path fill="rgb(122,81,5)" stroke="none" d="M 10619,8619 L 10278,8290 10148,8560 10619,8619 Z"/>
       </g>
      </g>
      <g class="com.sun.star.drawing.LineShape">
       <g id="id7">
        <rect class="BoundingBox" stroke="none" fill="none" x="10119" y="9518" width="702" height="1402"/>
        <path fill="none" stroke="rgb(122,81,5)" d="M 10819,9519 L 10311,10534"/>
        <path fill="rgb(122,81,5)" stroke="none" d="M 10119,10919 L 10454,10584 10186,10449 10119,10919 Z"/>
       </g>
      </g>
      <g class="com.sun.star.drawing.CustomShape">
       <g id="id8">
        <rect class="BoundingBox" stroke="none" fill="none" x="5418" y="9718" width="1203" height="1103"/>
        <path fill="rgb(174,207,0)" stroke="none" d="M 6019,9719 C 6359,9719 6619,9957 6619,10269 6619,10581 6359,10819 6019,10819 5679,10819 5419,10581 5419,10269 5419,9957 5679,9719 6019,9719 Z"/>
        <path fill="none" stroke="rgb(174,207,0)" d="M 6019,9719 C 6359,9719 6619,9957 6619,10269 6619,10581 6359,10819 6019,10819 5679,10819 5419,10581 5419,10269 5419,9957 5679,9719 6019,9719 Z"/>
       </g>
      </g>
      <g class="com.sun.star.drawing.CustomShape">
       <g id="id9">
        <rect class="BoundingBox" stroke="none" fill="none" x="10418" y="8418" width="1203" height="1103"/>
        <path fill="rgb(174,207,0)" stroke="none" d="M 11019,8419 C 11359,8419 11619,8657 11619,8969 11619,9281 11359,9519 11019,9519 10679,9519 10419,9281 10419,8969 10419,8657 10679,8419 11019,8419 Z"/>
        <path fill="none" stroke="rgb(174,207,0)" d="M 11019,8419 C 11359,8419 11619,8657 11619,8969 11619,9281 11359,9519 11019,9519 10679,9519 10419,9281 10419,8969 10419,8657 10679,8419 11019,8419 Z"/>
       </g>
      </g>
      <g class="com.sun.star.drawing.LineShape">
       <g id="id10">
        <rect class="BoundingBox" stroke="none" fill="none" x="8018" y="8018" width="1502" height="2902"/>
        <path fill="none" stroke="rgb(122,81,5)" d="M 8019,8019 L 9321,10537"/>
        <path fill="rgb(122,81,5)" stroke="none" d="M 9519,10919 L 9445,10450 9179,10588 9519,10919 Z"/>
       </g>
      </g>
     </g>
    </g>
   </g>
  </g>
 </g>
</svg>